# xmcd CD database file
#
# Track frame offsets:
#	150
#	19485
#	31269
#	51003
#	68306
#	86985
#	100663
#	117970
#	137479
#	154820
#	172699
#	190787
#	203986
#	220915
#	236523
#	254011
#	276975
#	296019
#	312140
#	322386
#	339995
#
# Disc length: 4702 seconds
#
# Revision: 1
# Processed by: cddbd v1.5.2PL0 Copyright (c) Steve Scherf et al.
# Submitted via: CDex 1.51
#
DISCID=33125c15
DTITLE=Various Artist - ZM-UKPP-Disc-3
DYEAR=1900
DGENRE=Blues
TTITLE0=Belinda Carlisle - Heaven Is A Place On Earth
TTITLE1=Beatles The - Help
TTITLE2=Mariah Carey - Hero
TTITLE3=Dj Otzi - Hey Baby
TTITLE4=Donna Summer - Hot Stuff
TTITLE5=Madness - House Of Fun
TTITLE6=Gloria Gaynor - I Am What I Am
TTITLE7=Black Eyed Peas The - I Gotta Feelin'
TTITLE8=Aretha Franklin - I Say A Little Prayer
TTITLE9=Tiffany - I Think We're Alone Now
TTITLE10=Gloria Gaynor - I Will Survive
TTITLE11=Monkees The - I'm A Believer
TTITLE12=Proclaimers The - I'm Gonna Be (500 Miles)
TTITLE13=Nolans The - I'm In The Mood For Dancing
TTITLE14=Pointer Sisters The - I'm So Excited
TTITLE15=Bill Medley and Jennifer Warnes - The Time Of My Life
TTITLE16=Cher - If I Could Turn Back Time
TTITLE17=Tony Christie - Is This The Way To Amarillo
TTITLE18=Tom Jones - It's Not Unusual
TTITLE19=Weather Girls The - It' Raining Men
TTITLE20=Chuck Berry - Johnny B Goode
EXTD=
EXTT0=
EXTT1=
EXTT2=
EXTT3=
EXTT4=
EXTT5=
EXTT6=
EXTT7=
EXTT8=
EXTT9=
EXTT10=
EXTT11=
EXTT12=
EXTT13=
EXTT14=
EXTT15=
EXTT16=
EXTT17=
EXTT18=
EXTT19=
EXTT20=
PLAYORDER=
